<svg xmlns="http://www.w3.org/2000/svg" xmlns:xlink="http://www.w3.org/1999/xlink" version="1.1" id="Layer_1" x="0px" y="0px" width="100px" height="100px" viewBox="0 0 100 100" enable-background="new 0 0 100 100" xml:space="preserve">
<g>
	<path d="M57.332,78.273h-7.543l3.193-4.469c1.176-1.646,0.795-3.938-0.854-5.113c-1.646-1.176-3.936-0.795-5.113,0.853   l-7.331,10.267c-0.799,1.117-0.904,2.588-0.275,3.81c0.627,1.221,1.885,1.989,3.258,1.989h7.541l-3.191,4.469   c-1.176,1.646-0.795,3.938,0.854,5.113c0.645,0.461,1.391,0.685,2.127,0.685c1.145,0,2.271-0.534,2.986-1.537l7.334-10.266   c0.799-1.117,0.904-2.589,0.274-3.81C59.965,79.042,58.707,78.273,57.332,78.273z"/>
	<path d="M88.127,40.845c-0.066-9.538-3.398-18.537-9.387-25.349c-6.254-7.113-14.639-11.03-23.609-11.03   c-7.34,0-14.287,2.614-20.088,7.56c-4.336,3.699-7.725,8.441-9.947,13.885c-2.926,0.937-5.596,2.579-7.797,4.83   c-3.502,3.582-5.43,8.313-5.43,13.324c0,10.513,8.551,19.065,19.064,19.066h35.199c12.13,0,21.998-9.869,21.998-22   C88.131,41.035,88.129,40.94,88.127,40.845z M66.133,55.798H30.934c-6.48-0.001-11.732-5.254-11.732-11.733   c0-6.382,5.096-11.569,11.439-11.725C33.91,20.436,43.637,11.8,55.131,11.8c14.129,0,25.588,13.045,25.664,29.169   c0,0.054,0.004,0.107,0.004,0.161C80.799,49.231,74.232,55.798,66.133,55.798z"/>
</g>
</svg>